STARTFONT 2.1
COMMENT
COMMENT Converted from OpenType font "Berkelium64.ttf" by "otf2bdf 3.0".
COMMENT
FONT -FreeType-Berkelium 64-Medium-R-Normal--5-50-72-72-P-30-ISO10646-1
SIZE 5 72 72
FONTBOUNDINGBOX 7 7 -1 -1
STARTPROPERTIES 19
FOUNDRY "FreeType"
FAMILY_NAME "Berkelium 64"
WEIGHT_NAME "Medium"
SLANT "R"
SETWIDTH_NAME "Normal"
ADD_STYLE_NAME ""
PIXEL_SIZE 5
POINT_SIZE 50
RESOLUTION_X 72
RESOLUTION_Y 72
SPACING "P"
AVERAGE_WIDTH 30
CHARSET_REGISTRY "ISO10646"
CHARSET_ENCODING "1"
FONT_ASCENT 4
FONT_DESCENT 1
COPYRIGHT "Created by Rebecca Bettencourt with FontForge 2.0 (http://fontforge.sf.net)"
_OTF_FONTFILE "Berkelium64.ttf"
_OTF_PSNAME "Berkelium64"
ENDPROPERTIES
CHARS 288
STARTCHAR 0020
ENCODING 32
SWIDTH 600 0
DWIDTH 3 0
BBX 0 0 0 0
BITMAP
ENDCHAR
STARTCHAR 0021
ENCODING 33
SWIDTH 200 0
DWIDTH 1 0
BBX 1 4 0 0
BITMAP
80
80
80
80
ENDCHAR
STARTCHAR 0022
ENCODING 34
SWIDTH 400 0
DWIDTH 2 0
BBX 2 1 0 3
BITMAP
C0
ENDCHAR
STARTCHAR 0023
ENCODING 35
SWIDTH 600 0
DWIDTH 3 0
BBX 2 4 0 0
BITMAP
C0
C0
C0
C0
ENDCHAR
STARTCHAR 0024
ENCODING 36
SWIDTH 600 0
DWIDTH 3 0
BBX 3 5 0 -1
BITMAP
E0
40
40
E0
40
ENDCHAR
STARTCHAR 0025
ENCODING 37
SWIDTH 800 0
DWIDTH 4 0
BBX 3 4 0 0
BITMAP
80
60
80
20
ENDCHAR
STARTCHAR 0026
ENCODING 38
SWIDTH 800 0
DWIDTH 4 0
BBX 3 4 0 0
BITMAP
C0
60
A0
60
ENDCHAR
STARTCHAR 0027
ENCODING 39
SWIDTH 200 0
DWIDTH 1 0
BBX 1 1 0 3
BITMAP
80
ENDCHAR
STARTCHAR 0028
ENCODING 40
SWIDTH 400 0
DWIDTH 2 0
BBX 2 5 0 -1
BITMAP
40
80
80
00
40
ENDCHAR
STARTCHAR 0029
ENCODING 41
SWIDTH 400 0
DWIDTH 2 0
BBX 2 5 0 -1
BITMAP
80
40
40
00
80
ENDCHAR
STARTCHAR 002A
ENCODING 42
SWIDTH 600 0
DWIDTH 3 0
BBX 3 4 0 0
BITMAP
E0
E0
40
E0
ENDCHAR
STARTCHAR 002B
ENCODING 43
SWIDTH 600 0
DWIDTH 3 0
BBX 3 3 0 0
BITMAP
40
E0
40
ENDCHAR
STARTCHAR 002C
ENCODING 44
SWIDTH 400 0
DWIDTH 2 0
BBX 1 2 0 -1
BITMAP
80
80
ENDCHAR
STARTCHAR 002D
ENCODING 45
SWIDTH 600 0
DWIDTH 3 0
BBX 2 1 0 1
BITMAP
C0
ENDCHAR
STARTCHAR 002E
ENCODING 46
SWIDTH 200 0
DWIDTH 1 0
BBX 1 1 0 0
BITMAP
80
ENDCHAR
STARTCHAR 002F
ENCODING 47
SWIDTH 800 0
DWIDTH 4 0
BBX 3 4 0 0
BITMAP
20
60
40
80
ENDCHAR
STARTCHAR 0030
ENCODING 48
SWIDTH 600 0
DWIDTH 3 0
BBX 3 4 0 0
BITMAP
E0
E0
A0
40
ENDCHAR
STARTCHAR 0031
ENCODING 49
SWIDTH 200 0
DWIDTH 1 0
BBX 1 4 0 0
BITMAP
80
80
80
80
ENDCHAR
STARTCHAR 0032
ENCODING 50
SWIDTH 400 0
DWIDTH 2 0
BBX 2 4 0 0
BITMAP
C0
00
80
C0
ENDCHAR
STARTCHAR 0033
ENCODING 51
SWIDTH 400 0
DWIDTH 2 0
BBX 2 4 0 0
BITMAP
C0
00
40
80
ENDCHAR
STARTCHAR 0034
ENCODING 52
SWIDTH 400 0
DWIDTH 2 0
BBX 2 4 0 0
BITMAP
40
C0
C0
40
ENDCHAR
STARTCHAR 0035
ENCODING 53
SWIDTH 400 0
DWIDTH 2 0
BBX 2 4 0 0
BITMAP
C0
80
40
80
ENDCHAR
STARTCHAR 0036
ENCODING 54
SWIDTH 600 0
DWIDTH 3 0
BBX 3 4 0 0
BITMAP
40
C0
A0
40
ENDCHAR
STARTCHAR 0037
ENCODING 55
SWIDTH 400 0
DWIDTH 2 0
BBX 2 4 0 0
BITMAP
C0
00
80
80
ENDCHAR
STARTCHAR 0038
ENCODING 56
SWIDTH 600 0
DWIDTH 3 0
BBX 3 4 0 0
BITMAP
E0
40
A0
40
ENDCHAR
STARTCHAR 0039
ENCODING 57
SWIDTH 600 0
DWIDTH 3 0
BBX 2 4 1 0
BITMAP
80
C0
40
80
ENDCHAR
STARTCHAR 003A
ENCODING 58
SWIDTH 200 0
DWIDTH 1 0
BBX 1 3 0 0
BITMAP
80
00
80
ENDCHAR
STARTCHAR 003B
ENCODING 59
SWIDTH 400 0
DWIDTH 2 0
BBX 1 4 0 -1
BITMAP
80
00
80
80
ENDCHAR
STARTCHAR 003C
ENCODING 60
SWIDTH 400 0
DWIDTH 2 0
BBX 2 4 0 0
BITMAP
40
80
80
40
ENDCHAR
STARTCHAR 003D
ENCODING 61
SWIDTH 400 0
DWIDTH 2 0
BBX 2 2 0 1
BITMAP
C0
C0
ENDCHAR
STARTCHAR 003E
ENCODING 62
SWIDTH 400 0
DWIDTH 2 0
BBX 2 4 0 0
BITMAP
80
C0
80
80
ENDCHAR
STARTCHAR 003F
ENCODING 63
SWIDTH 600 0
DWIDTH 3 0
BBX 3 4 0 0
BITMAP
E0
00
40
40
ENDCHAR
STARTCHAR 0040
ENCODING 64
SWIDTH 600 0
DWIDTH 3 0
BBX 3 4 0 0
BITMAP
E0
E0
E0
40
ENDCHAR
STARTCHAR 0041
ENCODING 65
SWIDTH 600 0
DWIDTH 3 0
BBX 3 4 0 0
BITMAP
40
A0
E0
A0
ENDCHAR
STARTCHAR 0042
ENCODING 66
SWIDTH 600 0
DWIDTH 3 0
BBX 3 4 0 0
BITMAP
E0
C0
A0
C0
ENDCHAR
STARTCHAR 0043
ENCODING 67
SWIDTH 600 0
DWIDTH 3 0
BBX 2 4 0 0
BITMAP
C0
80
80
40
ENDCHAR
STARTCHAR 0044
ENCODING 68
SWIDTH 600 0
DWIDTH 3 0
BBX 3 4 0 0
BITMAP
E0
A0
A0
C0
ENDCHAR
STARTCHAR 0045
ENCODING 69
SWIDTH 400 0
DWIDTH 2 0
BBX 2 4 0 0
BITMAP
C0
C0
80
C0
ENDCHAR
STARTCHAR 0046
ENCODING 70
SWIDTH 400 0
DWIDTH 2 0
BBX 2 4 0 0
BITMAP
C0
C0
80
80
ENDCHAR
STARTCHAR 0047
ENCODING 71
SWIDTH 600 0
DWIDTH 3 0
BBX 2 4 0 0
BITMAP
C0
80
C0
40
ENDCHAR
STARTCHAR 0048
ENCODING 72
SWIDTH 600 0
DWIDTH 3 0
BBX 3 4 0 0
BITMAP
A0
E0
A0
A0
ENDCHAR
STARTCHAR 0049
ENCODING 73
SWIDTH 200 0
DWIDTH 1 0
BBX 1 4 0 0
BITMAP
80
80
80
80
ENDCHAR
STARTCHAR 004A
ENCODING 74
SWIDTH 400 0
DWIDTH 2 0
BBX 2 4 0 0
BITMAP
40
40
40
C0
ENDCHAR
STARTCHAR 004B
ENCODING 75
SWIDTH 600 0
DWIDTH 3 0
BBX 3 4 0 0
BITMAP
A0
C0
C0
A0
ENDCHAR
STARTCHAR 004C
ENCODING 76
SWIDTH 400 0
DWIDTH 2 0
BBX 2 4 0 0
BITMAP
80
80
80
C0
ENDCHAR
STARTCHAR 004D
ENCODING 77
SWIDTH 800 0
DWIDTH 4 0
BBX 4 4 0 0
BITMAP
90
F0
90
90
ENDCHAR
STARTCHAR 004E
ENCODING 78
SWIDTH 600 0
DWIDTH 3 0
BBX 3 4 0 0
BITMAP
A0
E0
A0
A0
ENDCHAR
STARTCHAR 004F
ENCODING 79
SWIDTH 600 0
DWIDTH 3 0
BBX 3 4 0 0
BITMAP
E0
A0
A0
40
ENDCHAR
STARTCHAR 0050
ENCODING 80
SWIDTH 600 0
DWIDTH 3 0
BBX 3 4 0 0
BITMAP
E0
A0
C0
80
ENDCHAR
STARTCHAR 0051
ENCODING 81
SWIDTH 600 0
DWIDTH 3 0
BBX 3 5 0 -1
BITMAP
E0
A0
A0
40
20
ENDCHAR
STARTCHAR 0052
ENCODING 82
SWIDTH 600 0
DWIDTH 3 0
BBX 3 4 0 0
BITMAP
E0
A0
C0
A0
ENDCHAR
STARTCHAR 0053
ENCODING 83
SWIDTH 400 0
DWIDTH 2 0
BBX 2 4 0 0
BITMAP
C0
80
40
80
ENDCHAR
STARTCHAR 0054
ENCODING 84
SWIDTH 400 0
DWIDTH 2 0
BBX 1 4 0 0
BITMAP
80
80
80
80
ENDCHAR
STARTCHAR 0055
ENCODING 85
SWIDTH 600 0
DWIDTH 3 0
BBX 3 4 0 0
BITMAP
A0
A0
A0
E0
ENDCHAR
STARTCHAR 0056
ENCODING 86
SWIDTH 600 0
DWIDTH 3 0
BBX 3 4 0 0
BITMAP
A0
A0
A0
40
ENDCHAR
STARTCHAR 0057
ENCODING 87
SWIDTH 800 0
DWIDTH 4 0
BBX 4 4 0 0
BITMAP
90
90
F0
90
ENDCHAR
STARTCHAR 0058
ENCODING 88
SWIDTH 600 0
DWIDTH 3 0
BBX 3 4 0 0
BITMAP
A0
40
00
A0
ENDCHAR
STARTCHAR 0059
ENCODING 89
SWIDTH 600 0
DWIDTH 3 0
BBX 3 4 0 0
BITMAP
A0
A0
40
40
ENDCHAR
STARTCHAR 005A
ENCODING 90
SWIDTH 600 0
DWIDTH 3 0
BBX 3 4 0 0
BITMAP
E0
40
80
E0
ENDCHAR
STARTCHAR 005B
ENCODING 91
SWIDTH 400 0
DWIDTH 2 0
BBX 1 5 0 -1
BITMAP
80
80
80
80
80
ENDCHAR
STARTCHAR 005C
ENCODING 92
SWIDTH 800 0
DWIDTH 4 0
BBX 4 4 0 0
BITMAP
80
40
20
30
ENDCHAR
STARTCHAR 005D
ENCODING 93
SWIDTH 200 0
DWIDTH 1 0
BBX 1 5 0 -1
BITMAP
80
80
80
80
80
ENDCHAR
STARTCHAR 005E
ENCODING 94
SWIDTH 600 0
DWIDTH 3 0
BBX 3 2 0 1
BITMAP
C0
A0
ENDCHAR
STARTCHAR 005F
ENCODING 95
SWIDTH 1000 0
DWIDTH 5 0
BBX 5 1 -1 -1
BITMAP
F8
ENDCHAR
STARTCHAR 0060
ENCODING 96
SWIDTH 400 0
DWIDTH 2 0
BBX 2 2 0 2
BITMAP
80
40
ENDCHAR
STARTCHAR 0061
ENCODING 97
SWIDTH 600 0
DWIDTH 3 0
BBX 3 3 0 0
BITMAP
60
A0
60
ENDCHAR
STARTCHAR 0062
ENCODING 98
SWIDTH 600 0
DWIDTH 3 0
BBX 3 4 0 0
BITMAP
80
C0
A0
C0
ENDCHAR
STARTCHAR 0063
ENCODING 99
SWIDTH 600 0
DWIDTH 3 0
BBX 2 3 0 0
BITMAP
40
80
40
ENDCHAR
STARTCHAR 0064
ENCODING 100
SWIDTH 600 0
DWIDTH 3 0
BBX 3 4 0 0
BITMAP
20
60
A0
60
ENDCHAR
STARTCHAR 0065
ENCODING 101
SWIDTH 600 0
DWIDTH 3 0
BBX 2 3 0 0
BITMAP
C0
C0
C0
ENDCHAR
STARTCHAR 0066
ENCODING 102
SWIDTH 400 0
DWIDTH 2 0
BBX 1 4 0 0
BITMAP
80
80
80
80
ENDCHAR
STARTCHAR 0067
ENCODING 103
SWIDTH 600 0
DWIDTH 3 0
BBX 3 4 0 -1
BITMAP
E0
A0
60
40
ENDCHAR
STARTCHAR 0068
ENCODING 104
SWIDTH 600 0
DWIDTH 3 0
BBX 3 4 0 0
BITMAP
80
C0
A0
A0
ENDCHAR
STARTCHAR 0069
ENCODING 105
SWIDTH 200 0
DWIDTH 1 0
BBX 1 4 0 0
BITMAP
80
80
80
80
ENDCHAR
STARTCHAR 006A
ENCODING 106
SWIDTH 200 0
DWIDTH 1 0
BBX 1 5 0 -1
BITMAP
80
80
80
80
80
ENDCHAR
STARTCHAR 006B
ENCODING 107
SWIDTH 600 0
DWIDTH 3 0
BBX 2 4 0 0
BITMAP
80
C0
80
C0
ENDCHAR
STARTCHAR 006C
ENCODING 108
SWIDTH 200 0
DWIDTH 1 0
BBX 1 4 0 0
BITMAP
80
80
80
80
ENDCHAR
STARTCHAR 006D
ENCODING 109
SWIDTH 1000 0
DWIDTH 5 0
BBX 5 3 0 0
BITMAP
D0
A8
A8
ENDCHAR
STARTCHAR 006E
ENCODING 110
SWIDTH 600 0
DWIDTH 3 0
BBX 3 3 0 0
BITMAP
C0
A0
A0
ENDCHAR
STARTCHAR 006F
ENCODING 111
SWIDTH 600 0
DWIDTH 3 0
BBX 3 3 0 0
BITMAP
40
A0
40
ENDCHAR
STARTCHAR 0070
ENCODING 112
SWIDTH 600 0
DWIDTH 3 0
BBX 3 4 0 -1
BITMAP
E0
A0
C0
80
ENDCHAR
STARTCHAR 0071
ENCODING 113
SWIDTH 600 0
DWIDTH 3 0
BBX 3 4 0 -1
BITMAP
E0
A0
60
20
ENDCHAR
STARTCHAR 0072
ENCODING 114
SWIDTH 400 0
DWIDTH 2 0
BBX 1 2 0 1
BITMAP
80
80
ENDCHAR
STARTCHAR 0073
ENCODING 115
SWIDTH 400 0
DWIDTH 2 0
BBX 2 3 0 0
BITMAP
C0
80
C0
ENDCHAR
STARTCHAR 0074
ENCODING 116
SWIDTH 400 0
DWIDTH 2 0
BBX 1 3 0 0
BITMAP
80
80
80
ENDCHAR
STARTCHAR 0075
ENCODING 117
SWIDTH 600 0
DWIDTH 3 0
BBX 3 3 0 0
BITMAP
A0
A0
60
ENDCHAR
STARTCHAR 0076
ENCODING 118
SWIDTH 600 0
DWIDTH 3 0
BBX 3 3 0 0
BITMAP
A0
A0
40
ENDCHAR
STARTCHAR 0077
ENCODING 119
SWIDTH 1000 0
DWIDTH 5 0
BBX 5 3 0 0
BITMAP
A8
A8
50
ENDCHAR
STARTCHAR 0078
ENCODING 120
SWIDTH 600 0
DWIDTH 3 0
BBX 3 3 0 0
BITMAP
E0
40
E0
ENDCHAR
STARTCHAR 0079
ENCODING 121
SWIDTH 600 0
DWIDTH 3 0
BBX 3 4 0 -1
BITMAP
A0
A0
60
60
ENDCHAR
STARTCHAR 007A
ENCODING 122
SWIDTH 600 0
DWIDTH 3 0
BBX 2 3 0 0
BITMAP
C0
80
C0
ENDCHAR
STARTCHAR 007B
ENCODING 123
SWIDTH 600 0
DWIDTH 3 0
BBX 2 4 0 -1
BITMAP
40
00
80
40
ENDCHAR
STARTCHAR 007C
ENCODING 124
SWIDTH 200 0
DWIDTH 1 0
BBX 1 5 0 -1
BITMAP
80
80
80
80
80
ENDCHAR
STARTCHAR 007D
ENCODING 125
SWIDTH 400 0
DWIDTH 2 0
BBX 2 4 0 -1
BITMAP
80
00
40
80
ENDCHAR
STARTCHAR 007E
ENCODING 126
SWIDTH 600 0
DWIDTH 3 0
BBX 3 2 0 3
BITMAP
A0
C0
ENDCHAR
STARTCHAR 00A0
ENCODING 160
SWIDTH 600 0
DWIDTH 3 0
BBX 0 0 0 0
BITMAP
ENDCHAR
STARTCHAR 00A1
ENCODING 161
SWIDTH 200 0
DWIDTH 1 0
BBX 1 4 0 -1
BITMAP
80
80
80
80
ENDCHAR
STARTCHAR 00A2
ENCODING 162
SWIDTH 600 0
DWIDTH 3 0
BBX 3 4 0 -1
BITMAP
40
E0
60
40
ENDCHAR
STARTCHAR 00A3
ENCODING 163
SWIDTH 600 0
DWIDTH 3 0
BBX 2 4 0 0
BITMAP
C0
C0
80
C0
ENDCHAR
STARTCHAR 00A4
ENCODING 164
SWIDTH 800 0
DWIDTH 4 0
BBX 3 4 0 0
BITMAP
A0
60
60
A0
ENDCHAR
STARTCHAR 00A5
ENCODING 165
SWIDTH 600 0
DWIDTH 3 0
BBX 3 4 0 0
BITMAP
A0
A0
40
E0
ENDCHAR
STARTCHAR 00A6
ENCODING 166
SWIDTH 200 0
DWIDTH 1 0
BBX 1 5 0 -1
BITMAP
80
80
00
80
80
ENDCHAR
STARTCHAR 00A7
ENCODING 167
SWIDTH 600 0
DWIDTH 3 0
BBX 3 5 0 -1
BITMAP
E0
40
A0
60
C0
ENDCHAR
STARTCHAR 00A8
ENCODING 168
SWIDTH 400 0
DWIDTH 2 0
BBX 2 1 0 3
BITMAP
C0
ENDCHAR
STARTCHAR 00A9
ENCODING 169
SWIDTH 1000 0
DWIDTH 5 0
BBX 5 5 0 -1
BITMAP
70
A8
C8
A8
70
ENDCHAR
STARTCHAR 00AA
ENCODING 170
SWIDTH 600 0
DWIDTH 3 0
BBX 3 3 0 1
BITMAP
E0
60
E0
ENDCHAR
STARTCHAR 00AB
ENCODING 171
SWIDTH 800 0
DWIDTH 4 0
BBX 3 4 0 0
BITMAP
60
E0
A0
60
ENDCHAR
STARTCHAR 00AC
ENCODING 172
SWIDTH 600 0
DWIDTH 3 0
BBX 3 2 0 1
BITMAP
E0
20
ENDCHAR
STARTCHAR 00AD
ENCODING 173
SWIDTH 600 0
DWIDTH 3 0
BBX 2 1 0 1
BITMAP
C0
ENDCHAR
STARTCHAR 00AE
ENCODING 174
SWIDTH 1000 0
DWIDTH 5 0
BBX 5 5 0 -1
BITMAP
70
E8
F8
D8
70
ENDCHAR
STARTCHAR 00AF
ENCODING 175
SWIDTH 1000 0
DWIDTH 5 0
BBX 5 1 -1 3
BITMAP
F8
ENDCHAR
STARTCHAR 00B0
ENCODING 176
SWIDTH 600 0
DWIDTH 3 0
BBX 3 3 0 2
BITMAP
40
A0
40
ENDCHAR
STARTCHAR 00B1
ENCODING 177
SWIDTH 600 0
DWIDTH 3 0
BBX 3 4 0 0
BITMAP
40
E0
40
E0
ENDCHAR
STARTCHAR 00B2
ENCODING 178
SWIDTH 400 0
DWIDTH 2 0
BBX 2 2 0 2
BITMAP
C0
C0
ENDCHAR
STARTCHAR 00B3
ENCODING 179
SWIDTH 400 0
DWIDTH 2 0
BBX 2 2 0 2
BITMAP
C0
C0
ENDCHAR
STARTCHAR 00B4
ENCODING 180
SWIDTH 400 0
DWIDTH 2 0
BBX 2 2 0 2
BITMAP
C0
80
ENDCHAR
STARTCHAR 00B5
ENCODING 181
SWIDTH 600 0
DWIDTH 3 0
BBX 3 4 0 -1
BITMAP
A0
A0
E0
80
ENDCHAR
STARTCHAR 00B6
ENCODING 182
SWIDTH 800 0
DWIDTH 4 0
BBX 4 4 0 0
BITMAP
F0
B0
70
30
ENDCHAR
STARTCHAR 00B7
ENCODING 183
SWIDTH 200 0
DWIDTH 1 0
BBX 1 1 0 2
BITMAP
80
ENDCHAR
STARTCHAR 00B8
ENCODING 184
SWIDTH 400 0
DWIDTH 2 0
BBX 1 2 0 -1
BITMAP
80
80
ENDCHAR
STARTCHAR 00B9
ENCODING 185
SWIDTH 200 0
DWIDTH 1 0
BBX 1 2 0 2
BITMAP
80
80
ENDCHAR
STARTCHAR 00BA
ENCODING 186
SWIDTH 600 0
DWIDTH 3 0
BBX 3 3 0 1
BITMAP
E0
40
E0
ENDCHAR
STARTCHAR 00BB
ENCODING 187
SWIDTH 800 0
DWIDTH 4 0
BBX 3 4 0 0
BITMAP
C0
E0
A0
C0
ENDCHAR
STARTCHAR 00BC
ENCODING 188
SWIDTH 1000 0
DWIDTH 5 0
BBX 4 4 0 0
BITMAP
80
A0
D0
10
ENDCHAR
STARTCHAR 00BD
ENCODING 189
SWIDTH 1000 0
DWIDTH 5 0
BBX 4 5 0 0
BITMAP
80
80
B0
50
10
ENDCHAR
STARTCHAR 00BE
ENCODING 190
SWIDTH 1000 0
DWIDTH 5 0
BBX 5 4 -1 0
BITMAP
C0
50
F8
58
ENDCHAR
STARTCHAR 00BF
ENCODING 191
SWIDTH 600 0
DWIDTH 3 0
BBX 3 5 0 -1
BITMAP
40
00
40
A0
40
ENDCHAR
STARTCHAR 00C0
ENCODING 192
SWIDTH 600 0
DWIDTH 3 0
BBX 3 6 0 0
BITMAP
40
00
40
A0
E0
A0
ENDCHAR
STARTCHAR 00C1
ENCODING 193
SWIDTH 600 0
DWIDTH 3 0
BBX 3 6 0 0
BITMAP
40
00
40
A0
E0
A0
ENDCHAR
STARTCHAR 00C2
ENCODING 194
SWIDTH 600 0
DWIDTH 3 0
BBX 3 6 0 0
BITMAP
40
00
40
A0
E0
A0
ENDCHAR
STARTCHAR 00C3
ENCODING 195
SWIDTH 600 0
DWIDTH 3 0
BBX 3 6 0 0
BITMAP
E0
00
40
A0
E0
A0
ENDCHAR
STARTCHAR 00C4
ENCODING 196
SWIDTH 600 0
DWIDTH 3 0
BBX 3 4 0 2
BITMAP
40
A0
E0
A0
ENDCHAR
STARTCHAR 00C5
ENCODING 197
SWIDTH 600 0
DWIDTH 3 0
BBX 3 6 0 0
BITMAP
40
00
40
A0
E0
A0
ENDCHAR
STARTCHAR 00C6
ENCODING 198
SWIDTH 800 0
DWIDTH 4 0
BBX 4 4 0 0
BITMAP
70
B0
E0
B0
ENDCHAR
STARTCHAR 00C7
ENCODING 199
SWIDTH 600 0
DWIDTH 3 0
BBX 2 5 0 -1
BITMAP
C0
80
80
40
40
ENDCHAR
STARTCHAR 00C8
ENCODING 200
SWIDTH 400 0
DWIDTH 2 0
BBX 2 6 0 0
BITMAP
80
00
C0
C0
80
C0
ENDCHAR
STARTCHAR 00C9
ENCODING 201
SWIDTH 400 0
DWIDTH 2 0
BBX 2 6 0 0
BITMAP
40
00
C0
C0
80
C0
ENDCHAR
STARTCHAR 00CA
ENCODING 202
SWIDTH 400 0
DWIDTH 2 0
BBX 2 6 0 0
BITMAP
C0
00
C0
C0
80
C0
ENDCHAR
STARTCHAR 00CB
ENCODING 203
SWIDTH 400 0
DWIDTH 2 0
BBX 2 6 0 0
BITMAP
C0
00
C0
C0
80
C0
ENDCHAR
STARTCHAR 00CC
ENCODING 204
SWIDTH 200 0
DWIDTH 1 0
BBX 1 6 0 0
BITMAP
80
00
80
80
80
80
ENDCHAR
STARTCHAR 00CD
ENCODING 205
SWIDTH 200 0
DWIDTH 1 0
BBX 1 6 0 0
BITMAP
80
00
80
80
80
80
ENDCHAR
STARTCHAR 00CE
ENCODING 206
SWIDTH 200 0
DWIDTH 1 0
BBX 1 6 0 0
BITMAP
80
00
80
80
80
80
ENDCHAR
STARTCHAR 00CF
ENCODING 207
SWIDTH 200 0
DWIDTH 1 0
BBX 1 4 0 2
BITMAP
80
80
80
80
ENDCHAR
STARTCHAR 00D0
ENCODING 208
SWIDTH 600 0
DWIDTH 3 0
BBX 3 4 0 0
BITMAP
E0
E0
A0
C0
ENDCHAR
STARTCHAR 00D1
ENCODING 209
SWIDTH 600 0
DWIDTH 3 0
BBX 3 6 0 0
BITMAP
E0
00
A0
E0
A0
A0
ENDCHAR
STARTCHAR 00D2
ENCODING 210
SWIDTH 600 0
DWIDTH 3 0
BBX 3 6 0 0
BITMAP
40
00
E0
A0
A0
40
ENDCHAR
STARTCHAR 00D3
ENCODING 211
SWIDTH 600 0
DWIDTH 3 0
BBX 3 6 0 0
BITMAP
40
00
E0
A0
A0
40
ENDCHAR
STARTCHAR 00D4
ENCODING 212
SWIDTH 600 0
DWIDTH 3 0
BBX 3 6 0 0
BITMAP
40
00
E0
A0
A0
40
ENDCHAR
STARTCHAR 00D5
ENCODING 213
SWIDTH 600 0
DWIDTH 3 0
BBX 3 6 0 0
BITMAP
E0
00
E0
A0
A0
40
ENDCHAR
STARTCHAR 00D6
ENCODING 214
SWIDTH 600 0
DWIDTH 3 0
BBX 3 4 0 2
BITMAP
E0
A0
A0
40
ENDCHAR
STARTCHAR 00D7
ENCODING 215
SWIDTH 600 0
DWIDTH 3 0
BBX 3 4 0 0
BITMAP
A0
C0
C0
A0
ENDCHAR
STARTCHAR 00D8
ENCODING 216
SWIDTH 600 0
DWIDTH 3 0
BBX 3 4 0 0
BITMAP
E0
E0
A0
40
ENDCHAR
STARTCHAR 00D9
ENCODING 217
SWIDTH 600 0
DWIDTH 3 0
BBX 3 6 0 0
BITMAP
40
00
A0
A0
A0
E0
ENDCHAR
STARTCHAR 00DA
ENCODING 218
SWIDTH 600 0
DWIDTH 3 0
BBX 3 6 0 0
BITMAP
40
00
A0
A0
A0
E0
ENDCHAR
STARTCHAR 00DB
ENCODING 219
SWIDTH 600 0
DWIDTH 3 0
BBX 3 6 0 0
BITMAP
E0
00
A0
A0
A0
E0
ENDCHAR
STARTCHAR 00DC
ENCODING 220
SWIDTH 600 0
DWIDTH 3 0
BBX 3 6 0 0
BITMAP
A0
00
A0
A0
A0
E0
ENDCHAR
STARTCHAR 00DD
ENCODING 221
SWIDTH 600 0
DWIDTH 3 0
BBX 3 6 0 0
BITMAP
40
00
A0
A0
40
40
ENDCHAR
STARTCHAR 00DE
ENCODING 222
SWIDTH 600 0
DWIDTH 3 0
BBX 3 4 0 0
BITMAP
C0
A0
A0
C0
ENDCHAR
STARTCHAR 00DF
ENCODING 223
SWIDTH 600 0
DWIDTH 3 0
BBX 3 4 0 0
BITMAP
E0
C0
A0
C0
ENDCHAR
STARTCHAR 00E0
ENCODING 224
SWIDTH 600 0
DWIDTH 3 0
BBX 3 5 0 0
BITMAP
40
40
60
A0
60
ENDCHAR
STARTCHAR 00E1
ENCODING 225
SWIDTH 600 0
DWIDTH 3 0
BBX 3 5 0 0
BITMAP
40
40
60
A0
60
ENDCHAR
STARTCHAR 00E2
ENCODING 226
SWIDTH 600 0
DWIDTH 3 0
BBX 3 5 0 0
BITMAP
40
60
60
A0
60
ENDCHAR
STARTCHAR 00E3
ENCODING 227
SWIDTH 600 0
DWIDTH 3 0
BBX 3 5 0 0
BITMAP
40
E0
60
A0
60
ENDCHAR
STARTCHAR 00E4
ENCODING 228
SWIDTH 600 0
DWIDTH 3 0
BBX 3 4 0 0
BITMAP
60
60
A0
60
ENDCHAR
STARTCHAR 00E5
ENCODING 229
SWIDTH 600 0
DWIDTH 3 0
BBX 3 5 0 0
BITMAP
40
60
60
A0
60
ENDCHAR
STARTCHAR 00E6
ENCODING 230
SWIDTH 800 0
DWIDTH 4 0
BBX 4 3 0 0
BITMAP
60
B0
30
ENDCHAR
STARTCHAR 00E7
ENCODING 231
SWIDTH 600 0
DWIDTH 3 0
BBX 2 4 0 -1
BITMAP
C0
80
40
40
ENDCHAR
STARTCHAR 00E8
ENCODING 232
SWIDTH 600 0
DWIDTH 3 0
BBX 2 5 0 0
BITMAP
80
40
C0
C0
C0
ENDCHAR
STARTCHAR 00E9
ENCODING 233
SWIDTH 600 0
DWIDTH 3 0
BBX 2 5 0 0
BITMAP
40
80
C0
C0
C0
ENDCHAR
STARTCHAR 00EA
ENCODING 234
SWIDTH 600 0
DWIDTH 3 0
BBX 2 5 0 0
BITMAP
C0
C0
C0
C0
C0
ENDCHAR
STARTCHAR 00EB
ENCODING 235
SWIDTH 600 0
DWIDTH 3 0
BBX 2 4 0 0
BITMAP
C0
C0
C0
C0
ENDCHAR
STARTCHAR 00EC
ENCODING 236
SWIDTH 200 0
DWIDTH 1 0
BBX 1 4 0 1
BITMAP
80
80
80
80
ENDCHAR
STARTCHAR 00ED
ENCODING 237
SWIDTH 200 0
DWIDTH 1 0
BBX 1 4 0 1
BITMAP
80
80
80
80
ENDCHAR
STARTCHAR 00EE
ENCODING 238
SWIDTH 200 0
DWIDTH 1 0
BBX 1 5 0 0
BITMAP
80
00
80
80
80
ENDCHAR
STARTCHAR 00EF
ENCODING 239
SWIDTH 200 0
DWIDTH 1 0
BBX 1 3 0 1
BITMAP
80
80
80
ENDCHAR
STARTCHAR 00F0
ENCODING 240
SWIDTH 600 0
DWIDTH 3 0
BBX 3 4 0 0
BITMAP
60
60
A0
40
ENDCHAR
STARTCHAR 00F1
ENCODING 241
SWIDTH 600 0
DWIDTH 3 0
BBX 3 5 0 0
BITMAP
60
C0
C0
A0
A0
ENDCHAR
STARTCHAR 00F2
ENCODING 242
SWIDTH 600 0
DWIDTH 3 0
BBX 3 4 0 1
BITMAP
40
40
A0
40
ENDCHAR
STARTCHAR 00F3
ENCODING 243
SWIDTH 600 0
DWIDTH 3 0
BBX 3 4 0 1
BITMAP
40
40
A0
40
ENDCHAR
STARTCHAR 00F4
ENCODING 244
SWIDTH 600 0
DWIDTH 3 0
BBX 3 5 0 0
BITMAP
40
00
40
A0
40
ENDCHAR
STARTCHAR 00F5
ENCODING 245
SWIDTH 600 0
DWIDTH 3 0
BBX 3 5 0 0
BITMAP
20
C0
40
A0
40
ENDCHAR
STARTCHAR 00F6
ENCODING 246
SWIDTH 600 0
DWIDTH 3 0
BBX 3 3 0 1
BITMAP
40
A0
40
ENDCHAR
STARTCHAR 00F7
ENCODING 247
SWIDTH 600 0
DWIDTH 3 0
BBX 3 3 0 0
BITMAP
40
E0
40
ENDCHAR
STARTCHAR 00F8
ENCODING 248
SWIDTH 600 0
DWIDTH 3 0
BBX 3 3 0 0
BITMAP
40
E0
40
ENDCHAR
STARTCHAR 00F9
ENCODING 249
SWIDTH 600 0
DWIDTH 3 0
BBX 3 5 0 0
BITMAP
40
40
A0
A0
60
ENDCHAR
STARTCHAR 00FA
ENCODING 250
SWIDTH 600 0
DWIDTH 3 0
BBX 3 5 0 0
BITMAP
40
40
A0
A0
60
ENDCHAR
STARTCHAR 00FB
ENCODING 251
SWIDTH 600 0
DWIDTH 3 0
BBX 3 5 0 0
BITMAP
40
A0
A0
A0
60
ENDCHAR
STARTCHAR 00FC
ENCODING 252
SWIDTH 600 0
DWIDTH 3 0
BBX 3 4 0 0
BITMAP
A0
A0
A0
60
ENDCHAR
STARTCHAR 00FD
ENCODING 253
SWIDTH 600 0
DWIDTH 3 0
BBX 3 6 0 -1
BITMAP
40
40
A0
A0
60
60
ENDCHAR
STARTCHAR 00FE
ENCODING 254
SWIDTH 600 0
DWIDTH 3 0
BBX 3 5 0 -1
BITMAP
80
E0
A0
C0
80
ENDCHAR
STARTCHAR 00FF
ENCODING 255
SWIDTH 600 0
DWIDTH 3 0
BBX 3 5 0 -1
BITMAP
A0
A0
A0
60
60
ENDCHAR
STARTCHAR 0131
ENCODING 305
SWIDTH 200 0
DWIDTH 1 0
BBX 1 3 0 0
BITMAP
80
80
80
ENDCHAR
STARTCHAR 0132
ENCODING 306
SWIDTH 600 0
DWIDTH 3 0
BBX 3 4 0 0
BITMAP
A0
A0
A0
E0
ENDCHAR
STARTCHAR 0133
ENCODING 307
SWIDTH 400 0
DWIDTH 2 0
BBX 2 5 0 -1
BITMAP
C0
C0
C0
C0
40
ENDCHAR
STARTCHAR 0141
ENCODING 321
SWIDTH 400 0
DWIDTH 2 0
BBX 2 4 0 0
BITMAP
80
80
80
C0
ENDCHAR
STARTCHAR 0142
ENCODING 322
SWIDTH 400 0
DWIDTH 2 0
BBX 1 4 0 0
BITMAP
80
80
80
80
ENDCHAR
STARTCHAR 014A
ENCODING 330
SWIDTH 600 0
DWIDTH 3 0
BBX 3 4 0 -1
BITMAP
A0
E0
A0
A0
ENDCHAR
STARTCHAR 014B
ENCODING 331
SWIDTH 600 0
DWIDTH 3 0
BBX 3 4 0 -1
BITMAP
E0
A0
A0
40
ENDCHAR
STARTCHAR 0152
ENCODING 338
SWIDTH 800 0
DWIDTH 4 0
BBX 4 4 0 0
BITMAP
F0
B0
A0
70
ENDCHAR
STARTCHAR 0153
ENCODING 339
SWIDTH 800 0
DWIDTH 4 0
BBX 4 3 0 0
BITMAP
60
B0
70
ENDCHAR
STARTCHAR 0160
ENCODING 352
SWIDTH 400 0
DWIDTH 2 0
BBX 2 6 0 0
BITMAP
C0
00
C0
80
40
80
ENDCHAR
STARTCHAR 0161
ENCODING 353
SWIDTH 400 0
DWIDTH 2 0
BBX 2 5 0 0
BITMAP
C0
80
C0
80
C0
ENDCHAR
STARTCHAR 0178
ENCODING 376
SWIDTH 600 0
DWIDTH 3 0
BBX 3 4 0 2
BITMAP
A0
A0
40
40
ENDCHAR
STARTCHAR 017D
ENCODING 381
SWIDTH 600 0
DWIDTH 3 0
BBX 3 6 0 0
BITMAP
C0
00
E0
40
80
E0
ENDCHAR
STARTCHAR 017E
ENCODING 382
SWIDTH 600 0
DWIDTH 3 0
BBX 2 5 0 0
BITMAP
C0
C0
C0
80
C0
ENDCHAR
STARTCHAR 017F
ENCODING 383
SWIDTH 400 0
DWIDTH 2 0
BBX 1 4 0 0
BITMAP
80
80
80
80
ENDCHAR
STARTCHAR 0192
ENCODING 402
SWIDTH 400 0
DWIDTH 2 0
BBX 1 4 0 -1
BITMAP
80
80
80
80
ENDCHAR
STARTCHAR 0237
ENCODING 567
SWIDTH 200 0
DWIDTH 1 0
BBX 1 4 0 -1
BITMAP
80
80
80
80
ENDCHAR
STARTCHAR 02C6
ENCODING 710
SWIDTH 400 0
DWIDTH 2 0
BBX 2 2 0 3
BITMAP
80
C0
ENDCHAR
STARTCHAR 02C7
ENCODING 711
SWIDTH 400 0
DWIDTH 2 0
BBX 2 2 0 3
BITMAP
C0
80
ENDCHAR
STARTCHAR 02CA
ENCODING 714
SWIDTH 400 0
DWIDTH 2 0
BBX 1 2 0 3
BITMAP
80
80
ENDCHAR
STARTCHAR 02CB
ENCODING 715
SWIDTH 400 0
DWIDTH 2 0
BBX 1 2 0 3
BITMAP
80
80
ENDCHAR
STARTCHAR 02D8
ENCODING 728
SWIDTH 600 0
DWIDTH 3 0
BBX 2 2 0 3
BITMAP
C0
C0
ENDCHAR
STARTCHAR 02D9
ENCODING 729
SWIDTH 200 0
DWIDTH 1 0
BBX 1 1 0 3
BITMAP
80
ENDCHAR
STARTCHAR 02DA
ENCODING 730
SWIDTH 400 0
DWIDTH 2 0
BBX 2 2 0 2
BITMAP
C0
80
ENDCHAR
STARTCHAR 02DB
ENCODING 731
SWIDTH 400 0
DWIDTH 2 0
BBX 1 2 0 -1
BITMAP
80
80
ENDCHAR
STARTCHAR 02DC
ENCODING 732
SWIDTH 600 0
DWIDTH 3 0
BBX 3 2 0 3
BITMAP
A0
C0
ENDCHAR
STARTCHAR 02DD
ENCODING 733
SWIDTH 600 0
DWIDTH 3 0
BBX 2 2 0 3
BITMAP
C0
C0
ENDCHAR
STARTCHAR 03A9
ENCODING 937
SWIDTH 600 0
DWIDTH 3 0
BBX 2 4 0 0
BITMAP
40
C0
80
C0
ENDCHAR
STARTCHAR 03C0
ENCODING 960
SWIDTH 800 0
DWIDTH 4 0
BBX 3 3 0 0
BITMAP
E0
A0
A0
ENDCHAR
STARTCHAR 2010
ENCODING 8208
SWIDTH 600 0
DWIDTH 3 0
BBX 2 1 0 1
BITMAP
C0
ENDCHAR
STARTCHAR 2011
ENCODING 8209
SWIDTH 600 0
DWIDTH 3 0
BBX 2 1 0 1
BITMAP
C0
ENDCHAR
STARTCHAR 2012
ENCODING 8210
SWIDTH 600 0
DWIDTH 3 0
BBX 2 1 0 1
BITMAP
C0
ENDCHAR
STARTCHAR 2013
ENCODING 8211
SWIDTH 600 0
DWIDTH 3 0
BBX 2 1 0 1
BITMAP
C0
ENDCHAR
STARTCHAR 2014
ENCODING 8212
SWIDTH 800 0
DWIDTH 4 0
BBX 4 1 0 1
BITMAP
F0
ENDCHAR
STARTCHAR 2015
ENCODING 8213
SWIDTH 1000 0
DWIDTH 5 0
BBX 5 1 -1 1
BITMAP
F8
ENDCHAR
STARTCHAR 2016
ENCODING 8214
SWIDTH 400 0
DWIDTH 2 0
BBX 2 5 0 -1
BITMAP
C0
C0
C0
C0
C0
ENDCHAR
STARTCHAR 2017
ENCODING 8215
SWIDTH 1000 0
DWIDTH 5 0
BBX 5 2 -1 -1
BITMAP
F8
F8
ENDCHAR
STARTCHAR 2018
ENCODING 8216
SWIDTH 400 0
DWIDTH 2 0
BBX 1 1 0 3
BITMAP
80
ENDCHAR
STARTCHAR 2019
ENCODING 8217
SWIDTH 200 0
DWIDTH 1 0
BBX 1 1 0 2
BITMAP
80
ENDCHAR
STARTCHAR 201A
ENCODING 8218
SWIDTH 400 0
DWIDTH 2 0
BBX 1 2 0 -1
BITMAP
80
80
ENDCHAR
STARTCHAR 201B
ENCODING 8219
SWIDTH 400 0
DWIDTH 2 0
BBX 1 1 0 2
BITMAP
80
ENDCHAR
STARTCHAR 201C
ENCODING 8220
SWIDTH 600 0
DWIDTH 3 0
BBX 2 1 0 3
BITMAP
C0
ENDCHAR
STARTCHAR 201D
ENCODING 8221
SWIDTH 400 0
DWIDTH 2 0
BBX 2 1 0 2
BITMAP
C0
ENDCHAR
STARTCHAR 201E
ENCODING 8222
SWIDTH 600 0
DWIDTH 3 0
BBX 2 2 0 -1
BITMAP
C0
C0
ENDCHAR
STARTCHAR 201F
ENCODING 8223
SWIDTH 600 0
DWIDTH 3 0
BBX 2 1 0 2
BITMAP
C0
ENDCHAR
STARTCHAR 2020
ENCODING 8224
SWIDTH 400 0
DWIDTH 2 0
BBX 1 3 0 1
BITMAP
80
80
80
ENDCHAR
STARTCHAR 2021
ENCODING 8225
SWIDTH 400 0
DWIDTH 2 0
BBX 2 3 0 1
BITMAP
C0
80
C0
ENDCHAR
STARTCHAR 2022
ENCODING 8226
SWIDTH 600 0
DWIDTH 3 0
BBX 2 2 0 1
BITMAP
C0
C0
ENDCHAR
STARTCHAR 2023
ENCODING 8227
SWIDTH 600 0
DWIDTH 3 0
BBX 2 2 0 1
BITMAP
80
C0
ENDCHAR
STARTCHAR 2024
ENCODING 8228
SWIDTH 200 0
DWIDTH 1 0
BBX 1 1 0 0
BITMAP
80
ENDCHAR
STARTCHAR 2025
ENCODING 8229
SWIDTH 400 0
DWIDTH 2 0
BBX 2 1 0 0
BITMAP
C0
ENDCHAR
STARTCHAR 2026
ENCODING 8230
SWIDTH 600 0
DWIDTH 3 0
BBX 3 1 0 0
BITMAP
E0
ENDCHAR
STARTCHAR 2027
ENCODING 8231
SWIDTH 200 0
DWIDTH 1 0
BBX 1 1 0 1
BITMAP
80
ENDCHAR
STARTCHAR 2030
ENCODING 8240
SWIDTH 1200 0
DWIDTH 6 0
BBX 5 4 0 0
BITMAP
80
60
80
28
ENDCHAR
STARTCHAR 2031
ENCODING 8241
SWIDTH 1400 0
DWIDTH 7 0
BBX 6 4 0 0
BITMAP
80
60
80
34
ENDCHAR
STARTCHAR 2039
ENCODING 8249
SWIDTH 400 0
DWIDTH 2 0
BBX 2 4 0 0
BITMAP
40
80
80
40
ENDCHAR
STARTCHAR 203A
ENCODING 8250
SWIDTH 400 0
DWIDTH 2 0
BBX 2 4 0 0
BITMAP
80
C0
80
80
ENDCHAR
STARTCHAR 203C
ENCODING 8252
SWIDTH 400 0
DWIDTH 2 0
BBX 2 4 0 0
BITMAP
C0
C0
C0
C0
ENDCHAR
STARTCHAR 203D
ENCODING 8253
SWIDTH 600 0
DWIDTH 3 0
BBX 3 4 0 0
BITMAP
E0
40
40
40
ENDCHAR
STARTCHAR 2044
ENCODING 8260
SWIDTH 800 0
DWIDTH 4 0
BBX 3 4 0 0
BITMAP
20
60
40
80
ENDCHAR
STARTCHAR 20AC
ENCODING 8364
SWIDTH 600 0
DWIDTH 3 0
BBX 3 4 0 0
BITMAP
E0
C0
C0
E0
ENDCHAR
STARTCHAR 2117
ENCODING 8471
SWIDTH 1000 0
DWIDTH 5 0
BBX 4 5 0 -1
BITMAP
60
F0
F0
D0
60
ENDCHAR
STARTCHAR 2120
ENCODING 8480
SWIDTH 800 0
DWIDTH 4 0
BBX 4 2 0 2
BITMAP
D0
F0
ENDCHAR
STARTCHAR 2122
ENCODING 8482
SWIDTH 800 0
DWIDTH 4 0
BBX 4 2 0 2
BITMAP
D0
F0
ENDCHAR
STARTCHAR 2126
ENCODING 8486
SWIDTH 600 0
DWIDTH 3 0
BBX 3 4 0 0
BITMAP
40
A0
A0
A0
ENDCHAR
STARTCHAR 2127
ENCODING 8487
SWIDTH 600 0
DWIDTH 3 0
BBX 3 4 0 0
BITMAP
A0
A0
A0
40
ENDCHAR
STARTCHAR 2202
ENCODING 8706
SWIDTH 600 0
DWIDTH 3 0
BBX 2 4 0 0
BITMAP
40
40
C0
40
ENDCHAR
STARTCHAR 2206
ENCODING 8710
SWIDTH 800 0
DWIDTH 4 0
BBX 4 3 0 1
BITMAP
60
00
F0
ENDCHAR
STARTCHAR 2207
ENCODING 8711
SWIDTH 800 0
DWIDTH 4 0
BBX 4 3 0 0
BITMAP
F0
90
60
ENDCHAR
STARTCHAR 220F
ENCODING 8719
SWIDTH 800 0
DWIDTH 4 0
BBX 3 5 0 -1
BITMAP
E0
A0
A0
A0
A0
ENDCHAR
STARTCHAR 2210
ENCODING 8720
SWIDTH 800 0
DWIDTH 4 0
BBX 3 5 0 -1
BITMAP
A0
A0
A0
A0
E0
ENDCHAR
STARTCHAR 2211
ENCODING 8721
SWIDTH 600 0
DWIDTH 3 0
BBX 3 5 0 -1
BITMAP
E0
C0
40
C0
E0
ENDCHAR
STARTCHAR 2212
ENCODING 8722
SWIDTH 600 0
DWIDTH 3 0
BBX 2 1 0 1
BITMAP
C0
ENDCHAR
STARTCHAR 221A
ENCODING 8730
SWIDTH 800 0
DWIDTH 4 0
BBX 4 4 0 0
BITMAP
30
20
C0
C0
ENDCHAR
STARTCHAR 221E
ENCODING 8734
SWIDTH 1000 0
DWIDTH 5 0
BBX 4 3 0 0
BITMAP
50
B0
50
ENDCHAR
STARTCHAR 222B
ENCODING 8747
SWIDTH 400 0
DWIDTH 2 0
BBX 2 5 0 -1
BITMAP
40
00
80
00
80
ENDCHAR
STARTCHAR 2248
ENCODING 8776
SWIDTH 600 0
DWIDTH 3 0
BBX 3 3 0 0
BITMAP
C0
20
C0
ENDCHAR
STARTCHAR 2260
ENCODING 8800
SWIDTH 400 0
DWIDTH 2 0
BBX 2 3 0 1
BITMAP
40
80
C0
ENDCHAR
STARTCHAR 2264
ENCODING 8804
SWIDTH 400 0
DWIDTH 2 0
BBX 2 1 0 2
BITMAP
C0
ENDCHAR
STARTCHAR 2265
ENCODING 8805
SWIDTH 400 0
DWIDTH 2 0
BBX 2 1 0 2
BITMAP
C0
ENDCHAR
STARTCHAR 25C6
ENCODING 9670
SWIDTH 600 0
DWIDTH 3 0
BBX 3 3 0 0
BITMAP
40
E0
C0
ENDCHAR
STARTCHAR 25C7
ENCODING 9671
SWIDTH 600 0
DWIDTH 3 0
BBX 3 3 0 0
BITMAP
40
A0
40
ENDCHAR
STARTCHAR 25CA
ENCODING 9674
SWIDTH 600 0
DWIDTH 3 0
BBX 3 3 0 0
BITMAP
40
A0
40
ENDCHAR
STARTCHAR F700
ENCODING 63232
SWIDTH 600 0
DWIDTH 3 0
BBX 3 5 0 0
BITMAP
C0
A0
C0
C0
A0
ENDCHAR
STARTCHAR F701
ENCODING 63233
SWIDTH 600 0
DWIDTH 3 0
BBX 2 4 0 1
BITMAP
80
80
C0
C0
ENDCHAR
STARTCHAR F702
ENCODING 63234
SWIDTH 800 0
DWIDTH 4 0
BBX 3 4 0 0
BITMAP
80
C0
C0
E0
ENDCHAR
STARTCHAR F703
ENCODING 63235
SWIDTH 400 0
DWIDTH 2 0
BBX 2 4 0 0
BITMAP
C0
C0
C0
C0
ENDCHAR
STARTCHAR F704
ENCODING 63236
SWIDTH 800 0
DWIDTH 4 0
BBX 4 5 0 0
BITMAP
60
90
F0
D0
90
ENDCHAR
STARTCHAR F705
ENCODING 63237
SWIDTH 800 0
DWIDTH 4 0
BBX 4 4 0 0
BITMAP
20
E0
90
90
ENDCHAR
STARTCHAR FB00
ENCODING 64256
SWIDTH 600 0
DWIDTH 3 0
BBX 2 4 0 0
BITMAP
C0
C0
C0
C0
ENDCHAR
STARTCHAR FB01
ENCODING 64257
SWIDTH 400 0
DWIDTH 2 0
BBX 2 4 0 0
BITMAP
80
C0
C0
C0
ENDCHAR
STARTCHAR FB02
ENCODING 64258
SWIDTH 400 0
DWIDTH 2 0
BBX 2 4 0 0
BITMAP
C0
C0
C0
C0
ENDCHAR
STARTCHAR FB03
ENCODING 64259
SWIDTH 600 0
DWIDTH 3 0
BBX 3 4 0 0
BITMAP
C0
E0
E0
E0
ENDCHAR
STARTCHAR FB04
ENCODING 64260
SWIDTH 600 0
DWIDTH 3 0
BBX 3 4 0 0
BITMAP
E0
E0
E0
E0
ENDCHAR
STARTCHAR FB05
ENCODING 64261
SWIDTH 600 0
DWIDTH 3 0
BBX 2 4 0 0
BITMAP
C0
C0
C0
80
ENDCHAR
STARTCHAR FB06
ENCODING 64262
SWIDTH 800 0
DWIDTH 4 0
BBX 3 3 0 1
BITMAP
E0
20
E0
ENDCHAR
STARTCHAR FB07
ENCODING 64263
SWIDTH 800 0
DWIDTH 4 0
BBX 3 3 0 1
BITMAP
60
A0
40
ENDCHAR
ENDFONT
